<?xml version="1.0" encoding="utf-8"?>
<!-- Generator: Adobe Illustrator 27.5.0, SVG Export Plug-In . SVG Version: 6.00 Build 0)  -->
<svg version="1.1" xmlns="http://www.w3.org/2000/svg" xmlns:xlink="http://www.w3.org/1999/xlink" x="0px" y="0px"
	 viewBox="0 0 800 450" style="enable-background:new 0 0 800 500;" xml:space="preserve">
<g id="_x31_22">
	<g>
		<rect style="fill:#fff;" width="800" height="500"/>
		<g>
			<path style="fill:#e3f0fd;" d="M0,145.5l44.5-2.8c44.5-2.9,133.5-8.5,222.3,15c88.899,23.5,177.5,76.1,266.399,65.6
				C622,212.8,711,139.2,755.5,102.3L800,65.5v363c-167.523,0-335.047,0-502.571,0c-83.762,0-167.523,0-251.286,0
				C42.706,428.5,0,428.6,0,428.382c0-2.058,0-4.116,0-6.175c0-11.254,0-22.509,0-33.764C0,307.463,0,226.48,0,145.5z"/>
			<path style="fill:#c5d9fa;" d="M0,170.5l44.5,29.2C89,228.8,178,287.2,266.8,300.5c88.899,13.3,177.5-18.3,266.399-21.5
				C622,275.8,711,301.2,755.5,313.8l44.5,12.7v102c-259.662,0-519.324,0-778.985,0c-7.005,0-14.01,0-21.015,0V170.5z"/>
			<path style="fill:#9db5f3;" d="M0,315.5l44.5,4.7c44.5,4.6,133.5,14,222.3,1.8c88.899-12.2,177.5-45.8,266.399-53
				C622,261.8,711,281.2,755.5,290.8l44.5,9.7v128c-259.662,0-519.324,0-778.985,0c-7.005,0-14.01,0-21.015,0V315.5z"/>
			<path style="fill:#798eea;" d="M0,381.5c88.86-6.989,177.727-13.988,266.8-17.7c88.899-3.6,177.5-4,266.399-0.5
				c89.094,3.512,177.963,10.814,266.801,18.2v50c-259.662,0-519.324,0-778.985,0c-7.005,0-14.01,0-21.015,0V381.5z"/>
		</g>
	</g>
</g>
<g id="Layer_1">
</g>
</svg>
